<svg xmlns="http://www.w3.org/2000/svg" xmlns:xlink="http://www.w3.org/1999/xlink" width="844" height="220" viewBox="0 0 844 220"><defs><clipPath id="b"><rect width="844" height="220"/></clipPath></defs><g id="a" clip-path="url(#b)"><g transform="translate(0 -0.388)"><g transform="translate(0 73.716)"><path d="M549.131,202.973v73.038L422.264,349.257,295.4,276.011V202.973l126.867,73.291Z" transform="translate(-295.397 -202.973)" fill="#fff"/></g><g transform="translate(0 0)"><path d="M295.4,277.364V204.328l126.867-73.247,126.866,73.247v73.036L422.264,204.076Z" transform="translate(-295.397 -131.081)" fill="#2d9b57"/></g><g transform="translate(0 73.481)"><path d="M358.679,239.53l-63.215-36.519-.067.039V276.01l.066.038Z" transform="translate(-295.397 -203.011)" fill="#70b98d"/><path d="M482.525,239.53l63.215,36.519.066-.038V203.049l-.067-.039Z" transform="translate(-292.072 -203.011)" fill="#70b98d"/></g></g><g transform="translate(330.256 75.316)"><path d="M257.354,477.953l-16.513-23.545H227.286v23.545h-12.74V407.934h30.475c14.983,0,26.2,9.578,26.2,23.238,0,10.6-6.83,18.754-16.921,21.911l17.532,24.87Zm-30.068-35.264h16.308c8.663,0,14.676-4.382,14.676-11.517s-6.012-11.519-14.676-11.519H227.286Z" transform="translate(-214.546 -407.934)" fill="#fff"/><path d="M320.436,465.314H286.6l-5.3,12.64H267.131l29.252-70.019h14.167L339.8,477.953H325.736Zm-4.587-11.005-12.332-29.457-12.333,29.457Z" transform="translate(-201.687 -407.934)" fill="#fff"/><path d="M335.766,407.934h24.665c23.136,0,39.446,14.473,39.446,34.957s-16.31,35.062-39.446,35.062H335.766Zm25.991,58.5c14.779,0,25.176-9.786,25.176-23.545s-10.4-23.44-25.176-23.44H348.506v46.985Z" transform="translate(-184.903 -407.934)" fill="#fff"/><path d="M399.571,407.934h12.637v70.019H399.571Z" transform="translate(-169.3 -407.934)" fill="#fff"/><path d="M472.617,465.314h-33.84l-5.3,12.64H419.31l29.253-70.019h14.165l29.253,70.019H477.915Zm-4.587-11.005L455.7,424.851l-12.332,29.457Z" transform="translate(-164.473 -407.934)" fill="#fff"/><path d="M535.336,466.334v11.619H486.718V407.934h12.637v58.4Z" transform="translate(-147.989 -407.934)" fill="#fff"/><path d="M584.232,466.334v11.619H535.615V407.934h12.637v58.4Z" transform="translate(-136.032 -407.934)" fill="#fff"/><path d="M597.743,419.553V436.47h36.185v11.619H597.743v18.245H637.7v11.619H585V407.934H637.7v11.619Z" transform="translate(-123.954 -407.934)" fill="#fff"/></g></g></svg>